<?xml version="1.0" encoding="utf-8"?>
<!-- Generator: Adobe Illustrator 21.0.2, SVG Export Plug-In . SVG Version: 6.00 Build 0)  -->
<svg version="1.1" id="Layer_1" xmlns="http://www.w3.org/2000/svg" xmlns:xlink="http://www.w3.org/1999/xlink" x="0px" y="0px"
	 viewBox="0 0 405.5 249" style="enable-background:new 0 0 405.5 249;" xml:space="preserve">
<style type="text/css">
	.st0{fill:#333333;stroke:#4D4D4D;stroke-miterlimit:10;}
	.st1{fill:#42210B;stroke:#42210B;stroke-miterlimit:10;}
	.st2{fill:#603813;}
	.st3{fill:#603813;stroke:#603813;stroke-miterlimit:10;}
	.st4{fill:#754C24;}
	.st5{fill:#998675;stroke:#000000;stroke-miterlimit:10;}
	.st6{fill:#808080;stroke:#4D4D4D;stroke-miterlimit:10;}
	.st7{fill:#4D4D4D;stroke:#000000;stroke-miterlimit:10;}
	.st8{fill:#B3B3B3;stroke:#B3B3B3;stroke-miterlimit:10;}
	.st9{fill:#808080;stroke:#B3B3B3;stroke-miterlimit:10;}
</style>
<g>
	<path class="st0" d="M91.8,68h222c6.6,0,12,5.4,12,12v150.2c0,6.6-5.4,12-12,12h-222c-6.6,0-12-5.4-12-12V80
		C79.8,73.4,85.2,68,91.8,68z"/>
	<g>
		<path class="st1" d="M255.9,202.9c0,0-24.5,13.6-58.2,11.4s-51.2,22.9-55.7,14c-4.5-9-36.7-32.5,44.4-36.8
			c57.8-3.1,63.1-3.6,63.1-3.6L255.9,202.9z"/>
		<path class="st2" d="M249.4,201.3c0,0-5.2,3.9-9.3,3s-12.6,0.1-12.6,0.1s7.1-2.6,15.2-1.5C251,197.4,249.4,201.3,249.4,201.3z"/>
		<path class="st2" d="M174.3,202c0,0,4.7-4.4,8.9-4s12.5-1.5,12.5-1.5s-6.8,3.3-14.9,3.2C173.1,206,174.3,202,174.3,202z"/>
		<path class="st2" d="M224.2,199c0,0-3.1-1.1-10.5,2c-7.4,3.1-10,0.8-13.2,1.8s-1.6-3.2,7.7-2.3c9.3,0.9,7.7-3.1,14.3-2.3
			C229.1,199.2,224.2,199,224.2,199z"/>
		<path class="st2" d="M170.7,214.7c0,0-3.1-1.1-10.5,2c-7.4,3.1-10,0.8-13.2,1.8s-1.6-3.2,7.7-2.3c9.3,0.9,7.7-3.1,14.3-2.3
			C175.6,214.9,170.7,214.7,170.7,214.7z"/>
		<path class="st2" d="M190.4,208.4c0,0-0.8,2-5.1,1s-2.3,2-8.8,1.7c-6.5-0.3-8.3,1-8.3,1s4.5-2.2,9.8-3s6-2.6,8.2-1.6
			C188.3,208.4,190.4,208.4,190.4,208.4z"/>
		<path class="st2" d="M248.1,192.5c0,0-0.8,2-5.1,1c-4.3-1-2.3,2-8.8,1.7s-8.3,1-8.3,1s4.5-2.2,9.8-3s6-2.6,8.2-1.6
			C246.1,192.6,248.1,192.5,248.1,192.5z"/>
		<path class="st2" d="M167.9,202.5c0,0-2.7,0.2-3.2,1c-0.5,0.8-7,0.2-8.7,0.7s-3.9,2-8,2.7c-4.2,0.6-2.5,3.2-2.5,3.2s3.1-2.4,6.3-2
			c3.3,0.3,6.5-3.2,9.6-2.2s6.8-2.2,6.8-2.2S169.5,202.5,167.9,202.5z"/>
		<path class="st2" d="M223.4,204.9c0,0-2.7,0.2-3.2,1c-0.5,0.8-7,0.2-8.7,0.7c-1.6,0.4-3.9,2-8,2.7c-4.2,0.6-2.5,3.2-2.5,3.2
			s3.1-2.4,6.3-2c3.3,0.3,6.5-3.2,9.6-2.2s6.8-2.2,6.8-2.2S225.1,204.8,223.4,204.9z"/>
	</g>
	<g>
		<path class="st3" d="M142.3,202.4c0,0,26.7-8.7,59.3,0c32.7,8.7,54.7-12.7,57.3-3c2.7,9.7,29.7,38.9-50.7,27.6
			c-57.3-8.1-62.7-8.6-62.7-8.6L142.3,202.4z"/>
		<path class="st4" d="M151.9,207.6c0,0,5.8-2.8,9.7-1.2c3.8,1.7,12.3,2.3,12.3,2.3s-7.5,1.1-15.2-1.4
			C149.6,211.1,151.9,207.6,151.9,207.6z"/>
		<path class="st4" d="M225.8,221.3c0,0-5.5,3.5-9.5,2.2s-12.5-1-12.5-1s7.3-2,15.2-0.2C227.7,217.6,225.8,221.3,225.8,221.3z"/>
		<path class="st4" d="M176.3,214.7c0,0,2.8,1.7,10.7,0s10,1.1,13.3,0.7c3.3-0.4,1,3.4-8,0.8s-8.2,1.6-14.5-0.5
			C171.4,213.6,176.3,214.7,176.3,214.7z"/>
		<path class="st4" d="M231.8,209.6c0,0,2.8,1.7,10.7,0c7.8-1.7,10,1.1,13.3,0.7c3.3-0.4,1,3.4-8,0.8c-9-2.7-8.2,1.6-14.5-0.5
			C226.9,208.4,231.8,209.6,231.8,209.6z"/>
		<path class="st4" d="M211.2,212c0,0,1.2-1.8,5.2,0c4,1.8,2.7-1.5,9,0s8.3,0.6,8.3,0.6s-4.8,1.3-10.2,1.1c-5.3-0.2-6.3,1.4-8.3,0
			S211.2,212,211.2,212z"/>
		<path class="st4" d="M151.5,216.5c0,0,1.2-1.8,5.2,0c4,1.8,2.7-1.5,9,0c6.3,1.5,8.3,0.6,8.3,0.6s-4.8,1.3-10.2,1.1
			c-5.3-0.2-6.3,1.4-8.3,0S151.5,216.5,151.5,216.5z"/>
		<path class="st4" d="M232.2,222c0,0,2.7,0.3,3.4-0.4c0.7-0.7,6.9,1.1,8.6,1c1.7-0.1,4.2-1.3,8.4-1.1c4.2,0.2,3-2.7,3-2.7
			s-3.5,1.8-6.6,0.8c-3.1-1-7,1.8-9.9,0.3s-7.1,0.9-7.1,0.9S230.6,221.8,232.2,222z"/>
		<path class="st4" d="M178.1,209.1c0,0,2.7,0.3,3.4-0.4c0.7-0.7,6.9,1.1,8.6,1c1.7-0.1,4.2-1.3,8.4-1.1c4.2,0.2,3-2.7,3-2.7
			s-3.5,1.8-6.6,0.8c-3.1-1-7,1.8-9.9,0.3c-2.9-1.5-7.1,0.9-7.1,0.9S176.5,208.8,178.1,209.1z"/>
	</g>
	<path class="st5" d="M48.8,15.6v233h308v-233H48.8z M293.1,220.1H112.4v-108h0.6c5-16.9,43.3-30,89.8-30c46.5,0,84.8,13.1,89.8,30
		h0.6V220.1z"/>
	<path class="st6" d="M97.4,44.2H60.8c-6.6,0-12-5.4-12-12v-4.6c0-6.6,5.4-12,12-12h36.6c6.6,0,12,5.4,12,12v4.6
		C109.4,38.8,104,44.2,97.4,44.2z"/>
	<path class="st6" d="M121.4,15.6h35.5c6.6,0,12,5.4,12,12v4.6c0,6.6-5.4,12-12,12h-35.5c-6.6,0-12-5.4-12-12v-4.6
		C109.4,21,114.8,15.6,121.4,15.6z"/>
	<path class="st6" d="M172.1,84l-4.9,0.8c-6.5,1-12.7-3.5-13.7-10l-0.5-2.9c-1-6.5,3.5-12.7,10-13.7l4.9-0.8c6.5-1,12.7,3.5,13.7,10
		l0.5,2.9C183.1,76.8,178.6,83,172.1,84z"/>
	<path class="st6" d="M210.9,82.2h-14c-6.6,0-7.7-5.1-12-12l-0.7-1c-2.7-6-8.9-13-2.3-13h44.3c6.6,0,2.9,7.8,0,13.8l0,0
		C222.8,77.1,217.5,82.2,210.9,82.2z"/>
	<path class="st6" d="M248.2,86.6l-9.6-1.6c-6.5-1.1-10.9-7.3-9.8-13.8l0.6-3.7c1.1-6.5,7.3-10.9,13.8-9.8l9.6,1.6
		c6.5,1.1,10.9,7.3,9.8,13.8l-0.6,3.7C260.9,83.3,254.7,87.7,248.2,86.6z"/>
	<path class="st6" d="M277.1,96.7l-8.6-4.5c-5.9-3.1-8.1-10.3-5.1-16.2l1.7-3.3c3.1-5.9,10.3-8.1,16.2-5.1l8.6,4.5
		c5.9,3.1,8.1,10.3,5.1,16.2l-1.7,3.3C290.2,97.5,282.9,99.8,277.1,96.7z"/>
	<path class="st6" d="M145.1,89.8l-9.3,3.1c-6.3,2.1-13.1-1.4-15.2-7.6l-1.2-3.5c-2.1-6.3,1.4-13.1,7.6-15.2l9.3-3.1
		c6.3-2.1,13.1,1.4,15.2,7.6l1.2,3.5C154.8,80.9,151.4,87.8,145.1,89.8z"/>
	<path class="st6" d="M121.5,101L121.5,101c-2.6,1.5-5.9,0.6-7.3-2l-3.9-6.8c-1.5-2.6-0.6-5.9,2-7.3h0c2.6-1.5,5.9-0.6,7.3,2
		l3.9,6.8C125,96.2,124.1,99.5,121.5,101z"/>
	<path class="st6" d="M77.9,78.2H60.8c-6.6,0-12-5.4-12-12v-10c0-6.6,5.4-12,12-12h17.1c6.6,0,12,5.4,12,12v10
		C89.9,72.8,84.5,78.2,77.9,78.2z"/>
	<path class="st6" d="M322.5,37.7h23.2c6.1,0,11-5,11-11v0c0-6.1-5-11-11-11h-23.2c-6.1,0-11,5-11,11v0
		C311.4,32.7,316.4,37.7,322.5,37.7z"/>
	<path class="st6" d="M303.7,126.2h42.5c5.9,0,10.8,4.8,10.8,10.7v0c0,5.9-4.8,10.7-10.8,10.7h-42.5c-5.9,0-10.7-4.8-10.7-10.7v0
		C292.9,131,297.8,126.2,303.7,126.2z"/>
	<path class="st6" d="M345.4,126.2L345.4,126.2c-6.2,0-11.3-5.1-11.3-11.3V99.5c0-6.2,5.1-11.3,11.3-11.3h0
		c6.2,0,11.3,5.1,11.3,11.3v15.3C356.7,121.1,351.6,126.2,345.4,126.2z"/>
	<path class="st6" d="M322.1,126.2h-17.2c-6.6,0-12-5.4-12-12v0c0-6.6,5.4-12,12-12h17.2c6.6,0,12,5.4,12,12v0
		C334.1,120.8,328.7,126.2,322.1,126.2z"/>
	<path class="st6" d="M322.1,102.2h-14.2c-6.6,0-12-5.4-12-12V78.7c0-6.6,5.4-12,12-12h14.2c6.6,0,12,5.4,12,12v11.5
		C334.1,96.8,328.7,102.2,322.1,102.2z"/>
	<path class="st6" d="M345.4,51.2L345.4,51.2c6.2,0,11.3,5.1,11.3,11.3v14.3c0,6.2-5.1,11.3-11.3,11.3h0c-6.2,0-11.3-5.1-11.3-11.3
		V62.5C334.1,56.3,339.2,51.2,345.4,51.2z"/>
	<path class="st6" d="M302.7,51.2H350c3.7,0,6.8-3,6.8-6.7v0c0-3.7-3-6.7-6.8-6.7h-47.3c-3.7,0-6.7,3-6.7,6.7v0
		C295.9,48.1,299,51.2,302.7,51.2z"/>
	<path class="st6" d="M303.7,51.2h22.7c4.3,0,7.8,3.5,7.8,7.7v0c0,4.3-3.5,7.7-7.8,7.7h-22.7c-4.3,0-7.7-3.5-7.7-7.7v0
		C295.9,54.7,299.4,51.2,303.7,51.2z"/>
	<path class="st6" d="M300.2,37.7h-20.5c-6.2,0-11.2-5.1-11.2-11.2v0c0-6.2,5.1-11.2,11.2-11.2h20.5c6.2,0,11.3,5.1,11.3,11.2v0
		C311.4,32.6,306.4,37.7,300.2,37.7z"/>
	<path class="st6" d="M285.4,37.7h-5c-6.6,0-12,5.4-12,12v5c0,6.6,5.4,12,12,12h5c6.6,0,12-5.4,12-12v-5
		C297.4,43.1,292,37.7,285.4,37.7z"/>
	<path class="st6" d="M71.4,107.2H60.8c-6.6,0-12-5.4-12-12v-5c0-6.6,5.4-12,12-12h10.6c6.6,0,12,5.4,12,12v5
		C83.4,101.8,78,107.2,71.4,107.2z"/>
	<path class="st6" d="M108.9,78.2h-7c-6.6,0-12-5.4-12-12v-9.8c0-6.6,5.4-12,12-12h7c6.6,0,12,5.4,12,12v9.8
		C120.9,72.8,115.5,78.2,108.9,78.2z"/>
	<path class="st6" d="M97.4,107.2h-2c-6.6,0-12-5.4-12-12v-5c0-6.6,5.4-12,12-12h2c6.6,0,12,5.4,12,12v5
		C109.4,101.8,104,107.2,97.4,107.2z"/>
	<path class="st6" d="M152.3,61.3H130c-4.7,0-8.6-3.9-8.6-8.6v0c0-4.7,3.9-8.6,8.6-8.6h22.4c4.7,0,8.6,3.9,8.6,8.6v0
		C160.9,57.5,157.1,61.3,152.3,61.3z"/>
	<path class="st6" d="M183.9,56.2h-3c-6.6,0-12-5.4-12-12V27.6c0-6.6,5.4-12,12-12h3c6.6,0,12,5.4,12,12v16.6
		C195.9,50.8,190.5,56.2,183.9,56.2z"/>
	<path class="st6" d="M207.7,32.7h21.5c6.5,0,11.7,5.3,11.7,11.7v0c0,6.5-5.3,11.7-11.7,11.7h-21.5c-6.5,0-11.8-5.3-11.8-11.7v0
		C195.9,38,201.2,32.7,207.7,32.7z"/>
	<path class="st6" d="M256.4,58.9h-3.5c-6.6,0-12-5.4-12-12V27.6c0-6.6,5.4-12,12-12h3.5c6.6,0,12,5.4,12,12v19.3
		C268.4,53.5,263,58.9,256.4,58.9z"/>
	<path class="st6" d="M211.9,32.7h-7.4c-4.7,0-8.5-3.8-8.5-8.5v0c0-4.7,3.8-8.5,8.5-8.5h7.4c4.7,0,8.5,3.8,8.5,8.5v0
		C220.4,28.8,216.6,32.7,211.9,32.7z"/>
	<path class="st6" d="M229,32.7h3.4c4.7,0,8.5-3.8,8.5-8.5v0c0-4.7-3.8-8.5-8.5-8.5H229c-4.7,0-8.5,3.8-8.5,8.5v0
		C220.4,28.8,224.3,32.7,229,32.7z"/>
	<path class="st6" d="M102.9,126.2H58.3c-5.2,0-9.5-4.3-9.5-9.5v0c0-5.2,4.3-9.5,9.5-9.5h44.6c5.2,0,9.5,4.3,9.5,9.5v0
		C112.4,121.9,108.1,126.2,102.9,126.2z"/>
	<path class="st6" d="M60.9,126.2L60.9,126.2c-6.3,0-11.5,5.2-11.5,11.5v15c0,6.3,5.2,11.5,11.5,11.5h0c6.3,0,11.5-5.2,11.5-11.5
		v-15C72.4,131.3,67.2,126.2,60.9,126.2z"/>
	<path class="st6" d="M81.9,126.2h21c5.2,0,9.5,4.3,9.5,9.5v0c0,5.2-4.3,9.5-9.5,9.5h-21c-5.2,0-9.5-4.3-9.5-9.5v0
		C72.4,130.4,76.7,126.2,81.9,126.2z"/>
	<path class="st6" d="M100.9,145.2L100.9,145.2c6.1,0,11,4.9,11,11v17.5c0,6-4.9,11-11,11h0c-6,0-11-4.9-11-11v-17.5
		C89.9,150.1,94.9,145.2,100.9,145.2z"/>
	<path class="st6" d="M81.2,164.9L81.2,164.9c-4.8,0-8.8-3.9-8.8-8.7v-2.3c0-4.8,3.9-8.7,8.7-8.7h0c4.8,0,8.7,3.9,8.7,8.7v2.3
		C89.9,161,86,164.9,81.2,164.9z"/>
	<path class="st6" d="M80,184.7H59.3c-5.4,0-9.9-4.4-9.9-9.9v0c0-5.4,4.4-9.9,9.9-9.9H80c5.4,0,9.9,4.4,9.9,9.9v0
		C89.9,180.2,85.5,184.7,80,184.7z"/>
	<path class="st6" d="M86.4,184.7h14c6.3,0,11.5,5.2,11.5,11.5v0c0,6.3-5.2,11.5-11.5,11.5h-14c-6.3,0-11.5-5.2-11.5-11.5v0
		C74.9,189.8,80.1,184.7,86.4,184.7z"/>
	<path class="st6" d="M61.1,209h-0.3c-6.6,0-12-5.4-12-12v-0.3c0-6.6,5.4-12,12-12h0.3c6.6,0,12,5.4,12,12v0.3
		C73.1,203.6,67.7,209,61.1,209z"/>
	<path class="st6" d="M302.3,184.7L302.3,184.7c-5,0-9.2-4.1-9.2-9.2v-18.7c0-5,4.1-9.2,9.2-9.2h0c5,0,9.2,4.1,9.2,9.2v18.7
		C311.4,180.5,307.3,184.7,302.3,184.7z"/>
	<path class="st6" d="M323.4,174.8h18.5c6.6,0,12-5.4,12-12v-3.1c0-6.6-5.4-12-12-12h-18.5c-6.6,0-12,5.4-12,12v3.1
		C311.4,169.4,316.8,174.8,323.4,174.8z"/>
	<path class="st6" d="M317.9,209h-13c-6.6,0-12-5.4-12-12v-0.3c0-6.6,5.4-12,12-12h13c6.6,0,12,5.4,12,12v0.3
		C329.9,203.6,324.5,209,317.9,209z"/>
	<path class="st6" d="M316,175.5h36.3c2.5,0,4.6,2.1,4.6,4.6v0c0,2.5-2.1,4.6-4.6,4.6H316c-2.5,0-4.6-2.1-4.6-4.6v0
		C311.4,177.6,313.5,175.5,316,175.5z"/>
	<path class="st6" d="M341.9,184.7h3c6.6,0,12,5.4,12,12v11.5c0,6.6-5.4,12-12,12h-3c-6.6,0-12-5.4-12-12v-11.5
		C329.9,190.1,335.3,184.7,341.9,184.7z"/>
	<path class="st6" d="M79.8,229.2H59.5c-5.5,0-10.1-4.5-10.1-10.1v0c0-5.5,4.5-10.1,10.1-10.1h20.3c5.5,0,10.1,4.5,10.1,10.1v0
		C89.9,224.6,85.4,229.2,79.8,229.2z"/>
	<path class="st6" d="M101.2,248.5L101.2,248.5c-6.2,0-11.3-5.1-11.3-11.2v-17c0-6.2,5.1-11.2,11.2-11.2h0c6.2,0,11.2,5.1,11.2,11.2
		v17C112.4,243.5,107.4,248.5,101.2,248.5z"/>
	<path class="st6" d="M80.2,248.5H59.1c-5.3,0-9.7-4.4-9.7-9.7v0c0-5.3,4.4-9.7,9.7-9.7h21.1c5.3,0,9.7,4.4,9.7,9.7v0
		C89.9,244.2,85.6,248.5,80.2,248.5z"/>
	<path class="st6" d="M157.6,228.8h-35.3c-5.4,0-9.9,4.4-9.9,9.9v0c0,5.4,4.4,9.9,9.9,9.9h35.3c5.4,0,9.9-4.4,9.9-9.9v0
		C167.5,233.2,163.1,228.8,157.6,228.8z"/>
	<path class="st6" d="M341.9,221.4h2.8c6.6,0,12,5.4,12,12v3.1c0,6.6-5.4,12-12,12h-2.8c-6.6,0-12-5.4-12-12v-3.1
		C329.9,226.8,335.3,221.4,341.9,221.4z"/>
	<path class="st6" d="M317.9,233.8h-12.8c-6.6,0-12-5.4-12-12V221c0-6.6,5.4-12,12-12h12.8c6.6,0,12,5.4,12,12v0.8
		C329.9,228.4,324.5,233.8,317.9,233.8z"/>
	<path class="st6" d="M322.9,247.8h-40.5c-3.9,0-7-3.2-7-7v0c0-3.9,3.2-7,7-7h40.5c3.9,0,7,3.2,7,7v0
		C329.9,244.7,326.8,247.8,322.9,247.8z"/>
	<path class="st6" d="M266.6,248.5L266.6,248.5c-4.9,0-8.8-4-8.8-8.8v-2.1c0-4.9,4-8.8,8.8-8.8l0,0c4.9,0,8.8,4,8.8,8.8v2.1
		C275.4,244.6,271.4,248.5,266.6,248.5z"/>
	<path class="st6" d="M291.2,233.8h-11.7c-2.2,0-4.1-1.8-4.1-4.1v0c0-2.2,1.8-4.1,4.1-4.1h11.7c2.2,0,4.1,1.8,4.1,4.1v0
		C295.2,232,293.4,233.8,291.2,233.8z"/>
	<path class="st6" d="M248,227.5L248,227.5c5.4,0,9.8,4.4,9.8,9.8v1.5c0,5.4-4.4,9.7-9.7,9.7h0c-5.4,0-9.7-4.4-9.7-9.7v-1.5
		C238.2,231.9,242.6,227.5,248,227.5z"/>
	<path class="st6" d="M233.7,247.8h-27.1c-2.5,0-4.6-2.1-4.6-4.6l0,0c0-2.5,2.1-4.6,4.6-4.6h27.1c2.5,0,4.6,2.1,4.6,4.6l0,0
		C238.2,245.8,236.2,247.8,233.7,247.8z"/>
	<path class="st6" d="M232.6,238.8h-6.9c-3.1,0-5.6-2.5-5.6-5.6l0,0c0-3.1,2.5-5.6,5.6-5.6h6.9c3.1,0,5.6,2.5,5.6,5.6l0,0
		C238.2,236.2,235.7,238.8,232.6,238.8z"/>
	<path class="st6" d="M175.5,227.5L175.5,227.5c4.4,0,8,3.6,8,8v4.3c0,4.4-3.6,8-8,8h0c-4.4,0-8-3.6-8-8v-4.3
		C167.5,231.1,171.1,227.5,175.5,227.5z"/>
	<path class="st6" d="M192.7,248.5L192.7,248.5c5,0,9.2-4.1,9.2-9.2v-2.7c0-5-4.1-9.2-9.2-9.2h0c-5,0-9.2,4.1-9.2,9.2v2.7
		C183.6,244.4,187.7,248.5,192.7,248.5z"/>
	<path class="st6" d="M207.5,238.6h7c3.1,0,5.6-2.5,5.6-5.6v0c0-3.1-2.5-5.6-5.6-5.6h-7c-3.1,0-5.6,2.5-5.6,5.6v0
		C201.9,236.1,204.4,238.6,207.5,238.6z"/>
	<path class="st7" d="M296.8,231.2H110.9c-3,0-5.5-2.5-5.5-5.5l0,0c0-3,2.5-5.5,5.5-5.5h185.8c3,0,5.5,2.5,5.5,5.5l0,0
		C302.3,228.7,299.8,231.2,296.8,231.2z"/>
</g>
<path class="st8" d="M343,24.1H62.3c-8.7,0-17-1.7-23.1-4.8L2.3,0.5h401l-37.4,18.9C359.8,22.4,351.6,24.1,343,24.1z"/>
<path class="st9" d="M2.3,0.5c0,0,24.9,11.1,200.5,11.8S403.3,0.5,403.3,0.5H2.3z"/>
</svg>
