<svg id="svg2" xmlns="http://www.w3.org/2000/svg" viewBox="0 0 744.09 436"><defs><style>.cls-1{fill:#3737db;}</style></defs><title>gstar</title><rect class="cls-1" width="744.09" height="436"/><g id="layer1"><path id="path2162" d="M453.27,114.14l14.91-27.56L453.94,58.68l30.82,5.67,22.14-22.17L511,73.23,539,87.44,510.69,101l-4.88,31-21.6-22.7Z" transform="translate(0 20)"/><path id="path2164" d="M437.23,208.8l28.18-12.72,5.5-30.42,20.8,22.87,30.63-4.17L507,211.2,520.45,239l-30.27-6.27-22.33,21.38-3.39-30.73Z" transform="translate(0 20)"/><path id="path2166" d="M333,93.29l.56-15.72L320.88,68.2,336,63.87,341,49l8.79,13,15.73.16-9.69,12.39,4.71,15-14.78-5.39Z" transform="translate(0 20)"/><path id="path2168" d="M300.87,220l30.64-29.38-6.83-41.9,37.41,20.07,37.74-19.44-7.52,41.78L422.46,221l-42.06,5.76L361.3,264.7l-18.47-38.22Z" transform="translate(0 20)"/><path id="path2170" d="M387.5,313.07l8.68-20.92-12.31-19,22.58,1.8,14.28-17.58,5.27,22,21.13,8.15-19.32,11.82L426.59,322l-17.21-14.72Z" transform="translate(0 20)"/><path id="path2172" d="M597.66,337.14l-1.33-19.54-16.85-10,18.17-7.3,4.29-19.11,12.56,15L634,294.4,623.59,311l7.76,18-19-4.78Z" transform="translate(0 20)"/><path id="path2174" d="M605.68,38.74l17.63-.38L633,23.62l5.81,16.65,17,4.65-14,10.67.84,17.61L628.12,63.15l-16.49,6.24,5.08-16.89Z" transform="translate(0 20)"/><path id="path2176" d="M572,152.65l22-22.75-6.25-31.05,28.45,13.92,27.6-15.54-4.45,31.36L662.68,150l-31.2,5.46-13.19,28.8-14.83-28Z" transform="translate(0 20)"/><path id="path2178" d="M539.9,277.78l9.09-8.05-1.48-12.06L558,263.83l11-5.13-2.62,11.86,8.28,8.89-12.09,1.17-5.89,10.62-4.85-11.14Z" transform="translate(0 20)"/><path id="path2180" d="M475.73,306.66l28.11-.81,15.27-23.62,9.46,26.49,27.18,7.23-22.27,17.18L535,361.21l-23.22-15.87-26.24,10.13,7.92-27Z" transform="translate(0 20)"/><path id="path2182" d="M212.63,96.5l9.71-35.68L198.46,32.58l36.94-1.79L254.86-.65,268,33.93l35.92,8.8L275.07,65.89l2.73,36.88L246.86,82.5Z" transform="translate(0 20)"/><path id="path2184" d="M411.56,62.81l8.08,4.33,8.15-4.2-1.62,9,6.51,6.45-9.08,1.24-4.12,8.19-4-8.25-9.06-1.39L413,71.85Z" transform="translate(0 20)"/><path id="path2186" d="M241.51,175.11l9.63-19-10.2-18.71L262,140.67l14.64-15.48,3.38,21,19.25,9.14-19,9.72-2.74,21.13-15.1-15Z" transform="translate(0 20)"/><path id="path2188" d="M211,354.78l12.11-38.05-24.48-31.55,39.93-.24,22.44-33,12.57,37.9,38.35,11.13-32.16,23.67L281,364.52,248.6,341.25Z" transform="translate(0 20)"/><path id="path2190" d="M376.27,338.74l15.22,4.37L403.72,333l.55,15.83,13.35,8.52-14.88,5.42-4,15.33L389,365.65l-15.81,1,8.86-13.13Z" transform="translate(0 20)"/><path id="path2192" d="M320.12,356.39l2-10.47-7.52-7.55L325.13,337l4.86-9.48,4.57,9.62,10.52,1.69-7.74,7.32L339,356.68l-9.35-5.1Z" transform="translate(0 20)"/><path id="path2194" d="M195,159.06l14.22,14.37,19.9-3.57-9.27,18,9.54,17.82-19.95-3.27-14,14.58-3.06-20-18.19-8.81,18.06-9.08Z" transform="translate(0 20)"/><path id="path2196" d="M206.21,248.9l1.95-8.09-5.56-6.19,8.3-.65,4.17-7.2,3.18,7.69,8.14,1.74-6.33,5.4.86,8.28-7.09-4.35Z" transform="translate(0 20)"/><path id="path2198" d="M567.18,199.17l7.66-6.15-.73-9.79,8.22,5.38,9.09-3.72-2.58,9.48,6.35,7.5-9.81.48-5.17,8.35-3.49-9.18Z" transform="translate(0 20)"/><path id="path2200" d="M572,37.14l3.85-6.65-3.3-6.94,7.51,1.6,5.58-5.28.8,7.64,6.75,3.67-7,3.12-1.41,7.55-5.14-5.71Z" transform="translate(0 20)"/><path id="path2204" d="M408.35,25.91l6.24-9L410.7,6.63l10.51,3.15,8.55-6.87.25,11,9.18,6-10.35,3.63L426,34.1l-6.65-8.72Z" transform="translate(0 20)"/><path id="path2206" d="M130.81,324.3,141,299.1l-15-22.64,27.1,1.85,16.89-21.27,6.61,26.34L202,292.88l-23,14.43-1.16,27.14L157,317Z" transform="translate(0 20)"/><path id="path2208" d="M161.3,359.6l8.11-2.82,2.28-8.28,5.19,6.85,8.58-.39-4.91,7,3,8-8.22-2.49-6.71,5.36-.17-8.59Z" transform="translate(0 20)"/><path id="path2210" d="M451.67,388.47l6.24-9L454,369.2l10.51,3.15,8.55-6.87.25,11,9.18,6-10.35,3.63-2.88,10.58-6.65-8.72Z" transform="translate(0 20)"/><path id="path2212" d="M615.3,364.41l6.23-6.64-1.94-8.89,8.24,3.87,7.86-4.59-1.14,9,6.79,6.06L632.41,365l-3.66,8.33-4.39-8Z" transform="translate(0 20)"/><path id="path2214" d="M565.57,393.29l5.77-10-4.95-10.41,11.27,2.4,8.37-7.92,1.2,11.46,10.12,5.51L586.82,389l-2.12,11.33L577,391.8Z" transform="translate(0 20)"/><path id="path2216" d="M215.84,393.29l10.06-10.91-3.28-14.47,13.48,6.2,12.75-7.59-1.73,14.74L258.28,391l-14.55,2.91-5.85,13.64-7.26-12.94Z" transform="translate(0 20)"/><path id="path2218" d="M134,64.41l7.21-11.87-5.69-12.67,13.52,3.19,10.29-9.33,1.15,13.84,12.05,6.9-12.81,5.37-2.84,13.6-9.07-10.52Z" transform="translate(0 20)"/><path id="path2220" d="M132.42,135l16.33-24.69L137.66,82.86l28.53,7.9,22.68-19,1.3,29.57L215.27,117l-27.72,10.38-7.17,28.72-18.44-23.16Z" transform="translate(0 20)"/><path id="path2222" d="M113.17,224.84l11.5-12.8-4-16.73,15.73,7,14.67-9-1.78,17.12,13.09,11.17-16.83,3.6-6.58,15.9-8.62-14.89Z" transform="translate(0 20)"/><path id="path2224" d="M97.12,62.81l4.34-10.46-6.15-9.51,11.29.9,7.14-8.79,2.63,11L126.94,50l-9.66,5.91-.61,11.31-8.61-7.36Z" transform="translate(0 20)"/><path id="path2226" d="M82.69,117.35l10-8.52L91.41,95.72l11.21,6.92,12.06-5.31-3.12,12.8,8.78,9.83-13.14,1-6.63,11.39-5-12.19Z" transform="translate(0 20)"/><path id="path2228" d="M100.33,378.85l9.62-16.63-8.24-17.35,18.78,4,13.95-13.2,2,19.1L153.3,364l-17.55,7.8-3.53,18.88-12.84-14.28Z" transform="translate(0 20)"/><path id="path2230" d="M98.73,261.74l3.37-7.61L97.75,247l8.28.86,5.4-6.33,1.74,8.14,7.69,3.18-7.2,4.17-.65,8.3-6.19-5.56Z" transform="translate(0 20)"/><path id="path2232" d="M642.58,194.36l8.05,9.09L662.69,202l-6.16,10.47,5.13,11-11.86-2.62-8.89,8.28L639.74,217l-10.62-5.89,11.14-4.85Z" transform="translate(0 20)"/></g></svg>