<svg id="Layer_1" data-name="Layer 1" xmlns="http://www.w3.org/2000/svg" viewBox="0 0 197.83 157"><defs><style>.cls-1,.cls-3{fill:#5395d0;}.cls-1,.cls-2{stroke:#231f20;stroke-miterlimit:10;stroke-width:1.22px;}.cls-2{fill:#b3b3b3;}.cls-4{fill:#231f20;}</style></defs><title>gwindow</title><rect class="cls-1" x="1.91" y="2.5" width="191.5" height="75"/><rect class="cls-2" x="6.25" y="81.5" width="184.67" height="71"/><path class="cls-3" d="M223.5,349V499" transform="translate(-220.09 -344.5)"/><path class="cls-4" d="M221,349V499c0,3.22,5,3.22,5,0V349c0-3.22-5-3.22-5,0Z" transform="translate(-220.09 -344.5)"/><path class="cls-3" d="M222.5,499h157" transform="translate(-220.09 -344.5)"/><path class="cls-4" d="M222.5,501.5H414.11c3.22,0,3.22-5,0-5H379.5c-3.22,0-3.22,5,0,5h34.61c3.22,0,3.22-5,0-5H222.5c-3.22,0-3.22,5,0,5Z" transform="translate(-220.09 -344.5)"/><path class="cls-3" d="M223.5,347h192" transform="translate(-220.09 -344.5)"/><path class="cls-4" d="M223.5,349.5h192c3.22,0,3.22-5,0-5h-192c-3.22,0-3.22,5,0,5Z" transform="translate(-220.09 -344.5)"/><path class="cls-3" d="M413.5,350V499" transform="translate(-220.09 -344.5)"/><path class="cls-4" d="M411,350V499c0,3.22,5,3.22,5,0V350c0-3.22-5-3.22-5,0Z" transform="translate(-220.09 -344.5)"/><path class="cls-3" d="M223.5,424h190" transform="translate(-220.09 -344.5)"/><path class="cls-4" d="M223.5,426.5h190c3.22,0,3.22-5,0-5h-190c-3.22,0-3.22,5,0,5Z" transform="translate(-220.09 -344.5)"/><path class="cls-3" d="M321.5,347V497" transform="translate(-220.09 -344.5)"/><path class="cls-4" d="M319,347V497c0,3.22,5,3.22,5,0V347c0-3.22-5-3.22-5,0Z" transform="translate(-220.09 -344.5)"/></svg>