<?xml version="1.0" encoding="utf-8"?>
<!-- Generator: Adobe Illustrator 21.0.2, SVG Export Plug-In . SVG Version: 6.00 Build 0)  -->
<svg version="1.1" id="Layer_1" xmlns="http://www.w3.org/2000/svg" xmlns:xlink="http://www.w3.org/1999/xlink" x="0px" y="0px"
	 viewBox="0 0 1076.7 182.9" style="enable-background:new 0 0 1076.7 182.9;" xml:space="preserve">
<style type="text/css">
	.st0{fill:#B3B3B3;stroke:#B3B3B3;stroke-miterlimit:10;}
</style>
<path class="st0" d="M0.5,126.9c0,0,406.3-38.9,462.6-57.5c59.1-19.5,258.4-6.4,303-28.5c42.9-21.2,179.6-27.3,228-39.9
	c3.3-0.9,6.8-0.4,9.9,1c18.3,8.8,55.7,10.7,70.5,19.4c8.4,4.9-16.5,25.9-12,29c-5.6,6.7-4.3,16.2-78,41c-70.8,23.8-12,8.4-85.5,28
	c-73.6,19.7-263.1,63-263.1,63H0.5V126.9z"/>
</svg>
