<?xml version="1.0" encoding="utf-8"?>
<!-- Generator: Adobe Illustrator 21.0.2, SVG Export Plug-In . SVG Version: 6.00 Build 0)  -->
<svg version="1.1" id="Layer_1" xmlns="http://www.w3.org/2000/svg" xmlns:xlink="http://www.w3.org/1999/xlink" x="0px" y="0px"
	 viewBox="0 0 1366 700" style="enable-background:new 0 0 1366 700;" xml:space="preserve">
<style type="text/css">
	.st0{fill:#754C24;stroke:#603813;stroke-width:2;stroke-miterlimit:10;}
	.st1{fill:#8C6239;}
</style>
<path class="st0" d="M117,564.1c0,0,13.6-108,0-190.9h195.5c0,0-12.5,169.3,0,190.9h-34.1c0,0-2.3-144.3,3.4-158H152.2
	c0,0,6.8,150,0,158H117z"/>
<path class="st1" d="M132,412c0,0-6,27.5,0,38l2.5,29C134.5,479,136.5,435,132,412z"/>
<path class="st1" d="M288,431.5c0,0,3,16.5,0,25.5s1.3,28,1.3,28s0.7-29,4.2-39.5S288,431.5,288,431.5z"/>
<path class="st1" d="M144,515c0,0-3,12,0,19s3.5,22,3.5,22S152.5,548,144,515z"/>
<path class="st1" d="M290.6,512.5c0,0,1.1,9.5,0,18.5s-3,17,0.2,21.5C290.6,531,295.3,536.7,290.6,512.5z"/>
<path class="st1" d="M129.3,488.5c0,0,2.3,14.5,0,21c-2.3,6.5-1.7,11.5,0,20.5c1.7,9,5.6-26,5.6-26S135.8,501,129.3,488.5z"/>
</svg>
